<svg width="1920" height="436" viewBox="0 0 1920 436" fill="none" xmlns="http://www.w3.org/2000/svg">
<path fill-rule="evenodd" clip-rule="evenodd" d="M-168 107.502L-103.33 74.6525C-40.89 41.8027 86.22 -23.8968 213.33 8.95296C342.67 41.8027 469.78 173.202 596.89 184.152C724 195.102 851.11 85.6024 978.22 41.8027C1105.33 -1.99696 1234.67 19.9029 1361.78 85.6024C1488.89 151.302 1616 260.801 1743.11 293.651C1870.22 326.501 1997.33 282.701 2126.67 249.851C2253.78 217.002 2380.89 195.102 2443.33 184.152L2508 173.202V436H2443.33C2380.89 436 2253.78 436 2126.67 436C1997.33 436 1870.22 436 1743.11 436C1616 436 1488.89 436 1361.78 436C1234.67 436 1105.33 436 978.22 436C851.11 436 724 436 596.89 436C469.78 436 342.67 436 213.33 436C86.22 436 -40.89 436 -103.33 436H-168V107.502Z" fill="#1D1F21"/>
</svg>
