<svg width="1920" height="580" viewBox="0 0 1920 580" fill="none" xmlns="http://www.w3.org/2000/svg">
<path fill-rule="evenodd" clip-rule="evenodd" d="M-20 406.7L27.5567 397.017C75.1133 387.333 172.388 367.967 267.502 338.917C364.777 309.867 459.89 271.133 557.165 309.867C652.278 348.6 749.553 464.8 844.667 455.117C939.78 445.433 1037.05 309.867 1132.17 300.183C1229.44 290.5 1324.56 406.7 1421.83 406.7C1516.94 406.7 1614.22 290.5 1709.33 203.35C1804.45 116.2 1901.72 58.1 1996.83 116.2C2094.11 174.3 2189.22 348.6 2286.5 348.6C2381.61 348.6 2478.89 174.3 2526.44 87.15L2574 0V581H2526.44C2478.89 581 2381.61 581 2286.5 581C2189.22 581 2094.11 581 1996.83 581C1901.72 581 1804.45 581 1709.33 581C1614.22 581 1516.94 581 1421.83 581C1324.56 581 1229.44 581 1132.17 581C1037.05 581 939.78 581 844.667 581C749.553 581 652.278 581 557.165 581C459.89 581 364.777 581 267.502 581C172.388 581 75.1133 581 27.5567 581H-20V406.7Z" fill="#1D1F21"/>
</svg>
