<svg width="1920" height="752" viewBox="0 0 1920 752" fill="none" xmlns="http://www.w3.org/2000/svg">
<path fill-rule="evenodd" clip-rule="evenodd" d="M0 0L93.0833 120.714C186.167 241.429 372.333 482.857 558.5 482.857C744.667 482.857 930.833 241.429 1117 241.429C1303.17 241.429 1489.33 482.857 1675.5 482.857C1861.67 482.857 2047.83 241.429 2140.92 120.714L2234 0V845H2140.92C2047.83 845 1861.67 845 1675.5 845C1489.33 845 1303.17 845 1117 845C930.833 845 744.667 845 558.5 845C372.333 845 186.167 845 93.0833 845H0V0Z" fill="#1D1F21"/>
</svg>
