<svg width="1920" height="920" viewBox="0 0 1920 920" fill="none" xmlns="http://www.w3.org/2000/svg">
<path fill-rule="evenodd" clip-rule="evenodd" d="M-1186 408.889L-1056.58 374.815C-927.167 340.741 -668.333 272.593 -409.5 306.667C-150.667 340.741 108.167 477.037 367 579.259C625.833 681.481 884.667 749.63 1143.5 647.407C1402.33 545.185 1661.17 272.593 1790.58 136.296L1920 0V920H1790.58C1661.17 920 1402.33 920 1143.5 920C884.667 920 625.833 920 367 920C108.167 920 -150.667 920 -409.5 920C-668.333 920 -927.167 920 -1056.58 920H-1186V408.889Z" fill="#1D1F21"/>
</svg>
