<svg width="390" height="324" viewBox="0 0 390 324" fill="none" xmlns="http://www.w3.org/2000/svg">
<path fill-rule="evenodd" clip-rule="evenodd" d="M-10 72L19 114C47 156 104 240 161 264C219 288 276 252 333 252C390 252 447 288 504 294C561 300 619 276 676 258C733 240 790 228 847 186C904 144 961 72 1019 36C1076 0 1133 0 1161 0H1190V324H1161C1133 324 1076 324 1019 324C961 324 904 324 847 324C790 324 733 324 676 324C619 324 561 324 504 324C447 324 390 324 333 324C276 324 219 324 161 324C104 324 47 324 19 324H-10V72Z" fill="#1D1F21"/>
</svg>
