<svg width="390" height="338" viewBox="0 0 390 338" fill="none" xmlns="http://www.w3.org/2000/svg">
<path fill-rule="evenodd" clip-rule="evenodd" d="M-550 340L-521 318.75C-493 297.5 -436 255 -379 233.75C-321 212.5 -264 212.5 -207 233.75C-150 255 -93 297.5 -36 297.5C21 297.5 79 255 136 191.25C193 127.5 250 42.5 307 35.4167C364 28.3333 421 99.1667 479 106.25C536 113.333 593 56.6667 621 28.3333L650 0V340H621C593 340 536 340 479 340C421 340 364 340 307 340C250 340 193 340 136 340C79 340 21 340 -36 340C-93 340 -150 340 -207 340C-264 340 -321 340 -379 340C-436 340 -493 340 -521 340H-550Z" fill="#1D1F21"/>
</svg>
