<svg width="390" height="340" viewBox="0 0 390 340" fill="none" xmlns="http://www.w3.org/2000/svg">
<path fill-rule="evenodd" clip-rule="evenodd" d="M-184 340L-155 318.75C-127 297.5 -70 255 -13 233.75C45 212.5 102 212.5 159 233.75C216 255 273 297.5 330 297.5C387 297.5 445 255 502 191.25C559 127.5 616 42.5 673 35.4167C730 28.3333 787 99.1667 845 106.25C902 113.333 959 56.6667 987 28.3333L1016 0V340H987C959 340 902 340 845 340C787 340 730 340 673 340C616 340 559 340 502 340C445 340 387 340 330 340C273 340 216 340 159 340C102 340 45 340 -13 340C-70 340 -127 340 -155 340H-184Z" fill="#1D1F21"/>
</svg>
